<mxfile>
    <diagram id="uojdrbuGBtyqC-gwcg7u" name="Page-1">
        <mxGraphModel dx="1231" dy="495" grid="1" gridSize="10" guides="1" tooltips="1" connect="1" arrows="1" fold="1" page="1" pageScale="1" pageWidth="850" pageHeight="1100" math="0" shadow="0">
            <root>
                <mxCell id="0"/>
                <mxCell id="1" parent="0"/>
                <mxCell id="12" style="edgeStyle=orthogonalEdgeStyle;rounded=0;orthogonalLoop=1;jettySize=auto;html=1;entryX=0;entryY=0.5;entryDx=0;entryDy=0;exitX=1;exitY=0.5;exitDx=0;exitDy=0;" parent="1" source="17" target="6" edge="1">
                    <mxGeometry relative="1" as="geometry">
                        <mxPoint x="190" y="290" as="sourcePoint"/>
                    </mxGeometry>
                </mxCell>
                <mxCell id="13" style="edgeStyle=orthogonalEdgeStyle;rounded=0;orthogonalLoop=1;jettySize=auto;html=1;entryX=0;entryY=0.5;entryDx=0;entryDy=0;exitX=1;exitY=0.75;exitDx=0;exitDy=0;" parent="1" source="17" target="8" edge="1">
                    <mxGeometry relative="1" as="geometry">
                        <mxPoint x="190" y="305" as="sourcePoint"/>
                    </mxGeometry>
                </mxCell>
                <mxCell id="15" style="edgeStyle=orthogonalEdgeStyle;rounded=0;orthogonalLoop=1;jettySize=auto;html=1;exitX=1;exitY=0.5;exitDx=0;exitDy=0;" parent="1" source="2" edge="1">
                    <mxGeometry relative="1" as="geometry">
                        <mxPoint x="130" y="300" as="targetPoint"/>
                    </mxGeometry>
                </mxCell>
                <mxCell id="2" value="Install Python extension" style="rounded=1;whiteSpace=wrap;html=1;fillColor=#0050ef;strokeColor=#001DBC;fontColor=#ffffff;" parent="1" vertex="1">
                    <mxGeometry x="-80" y="270" width="120" height="60" as="geometry"/>
                </mxCell>
                <mxCell id="11" style="edgeStyle=orthogonalEdgeStyle;rounded=0;orthogonalLoop=1;jettySize=auto;html=1;exitX=0.5;exitY=1;exitDx=0;exitDy=0;entryX=0.5;entryY=0;entryDx=0;entryDy=0;" parent="1" source="4" target="2" edge="1">
                    <mxGeometry relative="1" as="geometry">
                        <mxPoint x="-20" y="260" as="targetPoint"/>
                    </mxGeometry>
                </mxCell>
                <mxCell id="4" value="Create Python file" style="rounded=1;whiteSpace=wrap;html=1;fillColor=#0050ef;strokeColor=#001DBC;fontColor=#ffffff;" parent="1" vertex="1">
                    <mxGeometry x="-80" y="150" width="120" height="60" as="geometry"/>
                </mxCell>
                <mxCell id="6" value="Click on the play button" style="rounded=1;whiteSpace=wrap;html=1;fillColor=#0050ef;strokeColor=#001DBC;fontColor=#ffffff;" parent="1" vertex="1">
                    <mxGeometry x="260" y="170" width="120" height="60" as="geometry"/>
                </mxCell>
                <mxCell id="28" style="edgeStyle=orthogonalEdgeStyle;rounded=0;orthogonalLoop=1;jettySize=auto;html=1;exitX=0.5;exitY=1;exitDx=0;exitDy=0;entryX=0.5;entryY=0;entryDx=0;entryDy=0;" parent="1" source="7" target="4" edge="1">
                    <mxGeometry relative="1" as="geometry"/>
                </mxCell>
                <mxCell id="7" value="Open VS Code" style="rounded=1;whiteSpace=wrap;html=1;" parent="1" vertex="1">
                    <mxGeometry x="-80" y="50" width="120" height="60" as="geometry"/>
                </mxCell>
                <mxCell id="14" style="edgeStyle=orthogonalEdgeStyle;rounded=0;orthogonalLoop=1;jettySize=auto;html=1;exitX=1;exitY=0.5;exitDx=0;exitDy=0;entryX=0;entryY=0.5;entryDx=0;entryDy=0;" parent="1" source="8" target="10" edge="1">
                    <mxGeometry relative="1" as="geometry"/>
                </mxCell>
                <mxCell id="8" value="Open the temrinal" style="rounded=1;whiteSpace=wrap;html=1;fillColor=#0050ef;strokeColor=#001DBC;fontColor=#ffffff;" parent="1" vertex="1">
                    <mxGeometry x="265" y="370" width="120" height="60" as="geometry"/>
                </mxCell>
                <mxCell id="10" value="Run file in the terminal with &quot;python&quot;" style="rounded=1;whiteSpace=wrap;html=1;fillColor=#0050ef;strokeColor=#001DBC;fontColor=#ffffff;" parent="1" vertex="1">
                    <mxGeometry x="425" y="370" width="120" height="60" as="geometry"/>
                </mxCell>
                <mxCell id="17" value="Add print(&quot;Hello World!&quot;)" style="rounded=1;whiteSpace=wrap;html=1;fillColor=#0050ef;strokeColor=#001DBC;fontColor=#ffffff;" parent="1" vertex="1">
                    <mxGeometry x="70" y="270" width="120" height="60" as="geometry"/>
                </mxCell>
                <mxCell id="20" value="&lt;b&gt;Required action&lt;/b&gt;&lt;br&gt;&lt;div style=&quot;text-align: left&quot;&gt;&lt;span&gt;- Save file&lt;/span&gt;&lt;/div&gt;" style="text;html=1;align=center;verticalAlign=middle;resizable=0;points=[];autosize=1;strokeColor=none;" parent="1" vertex="1">
                    <mxGeometry x="425" y="340" width="110" height="30" as="geometry"/>
                </mxCell>
                <mxCell id="23" value="&lt;div style=&quot;text-align: left&quot;&gt;&lt;span&gt;- Check if Python is installed&lt;/span&gt;&lt;/div&gt;&lt;blockquote style=&quot;margin: 0 0 0 40px ; border: none ; padding: 0px&quot;&gt;&lt;div style=&quot;text-align: left&quot;&gt;&lt;span&gt;- If it isn't, guide users to install&lt;/span&gt;&lt;/div&gt;&lt;/blockquote&gt;&lt;blockquote style=&quot;margin: 0 0 0 40px ; border: none ; padding: 0px&quot;&gt;&lt;blockquote style=&quot;margin: 0 0 0 40px ; border: none ; padding: 0px&quot;&gt;&lt;div style=&quot;text-align: left&quot;&gt;&lt;span&gt;- Once it's installed, auto select it&lt;/span&gt;&lt;/div&gt;&lt;/blockquote&gt;&lt;/blockquote&gt;&lt;blockquote style=&quot;margin: 0 0 0 40px ; border: none ; padding: 0px&quot;&gt;&lt;div style=&quot;text-align: left&quot;&gt;&lt;span&gt;- If it is, auto select one&lt;/span&gt;&amp;nbsp;&lt;/div&gt;&lt;/blockquote&gt;&lt;div style=&quot;text-align: left&quot;&gt;- Running &quot;python&quot; matches the selected interpreter&amp;nbsp;&lt;/div&gt;" style="text;html=1;align=center;verticalAlign=middle;resizable=0;points=[];autosize=1;strokeColor=none;" parent="1" vertex="1">
                    <mxGeometry x="425" y="440" width="290" height="70" as="geometry"/>
                </mxCell>
                <mxCell id="26" value="&lt;div style=&quot;text-align: left&quot;&gt;&lt;span&gt;- Check if Python is installed&lt;/span&gt;&lt;/div&gt;&lt;blockquote style=&quot;margin: 0 0 0 40px ; border: none ; padding: 0px&quot;&gt;&lt;div style=&quot;text-align: left&quot;&gt;&lt;span&gt;- If it isn't, guide users to install&lt;/span&gt;&lt;/div&gt;&lt;/blockquote&gt;&lt;blockquote style=&quot;margin: 0 0 0 40px ; border: none ; padding: 0px&quot;&gt;&lt;blockquote style=&quot;margin: 0 0 0 40px ; border: none ; padding: 0px&quot;&gt;&lt;div style=&quot;text-align: left&quot;&gt;&lt;span&gt;- Once it's installed, auto select it&lt;/span&gt;&lt;/div&gt;&lt;/blockquote&gt;&lt;/blockquote&gt;&lt;blockquote style=&quot;margin: 0 0 0 40px ; border: none ; padding: 0px&quot;&gt;&lt;div style=&quot;text-align: left&quot;&gt;&lt;span&gt;- If it is, auto select one&lt;/span&gt;&amp;nbsp;&lt;/div&gt;&lt;div style=&quot;text-align: left&quot;&gt;&lt;span&gt;&lt;br&gt;&lt;/span&gt;&lt;/div&gt;&lt;/blockquote&gt;" style="text;html=1;align=center;verticalAlign=middle;resizable=0;points=[];autosize=1;strokeColor=none;" parent="1" vertex="1">
                    <mxGeometry x="260" y="240" width="270" height="70" as="geometry"/>
                </mxCell>
                <mxCell id="27" value="&lt;b&gt;Required action&lt;/b&gt;&lt;br&gt;&lt;div style=&quot;text-align: left&quot;&gt;&lt;span&gt;- Save file&lt;/span&gt;&lt;/div&gt;" style="text;html=1;align=center;verticalAlign=middle;resizable=0;points=[];autosize=1;strokeColor=none;" parent="1" vertex="1">
                    <mxGeometry x="260" y="140" width="110" height="30" as="geometry"/>
                </mxCell>
            </root>
        </mxGraphModel>
    </diagram>
</mxfile>